PathFileType	4	(X/Y/Z)	pose_F01_0-93.trc
DataRate	CameraRate	NumFrames	NumMarkers	Units	OrigDataRate	OrigDataStartFrame	OrigNumFrames
30	30	6	21	m	30	34	93
Frame#	Time	CHip			RHip			RKnee			RAnkle			RBigToe			RSmallToe			RHeel			LHip			LKnee			LAnkle			LBigToe			LSmallToe			LHeel			Neck			Nose			RShoulder			RElbow			RWrist			LShoulder			LElbow			LWrist			
		X1	Y1	Z1	X2	Y2	Z2	X3	Y3	Z3	X4	Y4	Z4	X5	Y5	Z5	X6	Y6	Z6	X7	Y7	Z7	X8	Y8	Z8	X9	Y9	Z9	X10	Y10	Z10	X11	Y11	Z11	X12	Y12	Z12	X13	Y13	Z13	X14	Y14	Z14	X15	Y15	Z15	X16	Y16	Z16	X17	Y17	Z17	X18	Y18	Z18	X19	Y19	Z19	X20	Y20	Z20	X21	Y21	Z21	
34	1.1333333333333333	-0.24408649853846548	1.8725831215933866	-0.5734374973503275	-0.2598555572150112	1.8707460768851438	-0.5173387593117265	-0.2998697614783757	1.7054533146731847	-0.4953331883824499	-0.272211958004127	1.562148403457979	-0.4610250405008991	-0.612447530621155	1.4965097305654886	-0.8837148153502998				-0.2784086552100784	1.545209581339997	-0.4408219486412826	-0.22500708713371562	1.8757342949448217	-0.6320393377526291	-0.2151140571366144	1.7074821893850394	-0.6194607806566991	-0.18240621701420895	1.571121872360171	-0.5778066474987157	-0.2074156986097599	1.5351843464015735	-0.6287871934044194	-0.18687664234162743	1.544780417772715	-0.6379615064303468	-0.17973863417242109	1.565621463480644	-0.5675747529699633	-0.22517287043233378	2.052496967739414	-0.5926200285938229	-0.26546056671932994	2.1192821944526887	-0.6147107923056199	-0.2505787515057258	2.0475268600602536	-0.5154963514024555	-0.2514302152944204	1.9560956090220998	-0.46439583109781396	-0.26464218283439256	1.8658171797233618	-0.4286498737512114	-0.2006804779928222	2.056140295280872	-0.6709316114145515	-0.20043301696075932	1.9937946552218233	-0.7154326060038397	-0.256692546799231	1.943110677779165	-0.6979637914473729
35	1.1666666666666667	-0.2468011525868966	1.8724921625613224	-0.5743234412461307	-0.26286478066258034	1.8667131059457573	-0.5176455051742547	-0.31831422148544797	1.7046166876237596	-0.502387579526542	-0.3053860137448031	1.5609201745283439	-0.43793210945663585	-0.612447530621155	1.4965097305654886	-0.8837148153502998				-0.3064978069877944	1.5450787799042025	-0.4181449239321795	-0.2255006173234583	1.8770833086253296	-0.6351854048937344	-0.2142132420443866	1.7067812782805092	-0.6246332602129681	-0.18144682325110992	1.56846657520685	-0.5740804173632092	-0.20425238618951688	1.5347582310456283	-0.6276633178386206	-0.1861185695995449	1.5437599866267098	-0.6339055312473133	-0.17918571064555405	1.5628686542697239	-0.5626369954511695	-0.2413659675612317	2.052532711762047	-0.5915889991418625	-0.27677384817838985	2.1177921845371093	-0.6145436021157944	-0.26379926071551424	2.0461472446907956	-0.5057835731972793	-0.2516706367704833	1.9551116443818388	-0.4622775028403849	-0.2614492559579216	1.8631674000900236	-0.4167746553181958	-0.21304300095895867	2.056563245944506	-0.6651425560624791	-0.20043301696075932	1.9937946552218233	-0.7154326060038397	-0.2702903907085028	1.9580242823103873	-0.701433232425376
36	1.2	-0.24975348154368937	1.8620450122943553	-0.5707256532821761	-0.2678265813866209	1.8576674554446653	-0.5121351172767551	-0.335023456126248	1.6946616215453756	-0.4929356994612668	-0.3385600694854792	1.5596919455987088	-0.41483917841237256	-0.612447530621155	1.4965097305654886	-0.8837148153502998				-0.3345869587655103	1.5449479784684081	-0.39546789922307635	-0.22857787803884744	1.8678000038771705	-0.6318710480235489	-0.2190464049646029	1.6963562145340303	-0.635375532404203	-0.18159571648891698	1.569963568964571	-0.5827291612850224	-0.20318063540865158	1.5334647117856006	-0.6326659738339557	-0.18331010218860963	1.541457019279139	-0.6454364736314276	-0.18022620284371577	1.5639771628179762	-0.5654770948325534	-0.27412327526271035	2.0409816039496347	-0.56218739779188	-0.32384539599812473	2.107933572931255	-0.5802762126620791	-0.2906121897744939	2.0341281133194897	-0.4863177041232075	-0.25949276552845685	1.9426768234233036	-0.4535132553075022	-0.2582563290814507	1.8605176204566851	-0.40489943688518015	-0.2560347903006208	2.046436224328098	-0.6380590355972998	-0.2748996726671455	1.9775887226193167	-0.6789373983282492	-0.3576539673655589	1.942785652127824	-0.695345558921998
37	1.2333333333333334	-0.2520148407939221	1.851890100905595	-0.5635358815159663	-0.27184273975218376	1.8500502419276053	-0.5032895175522458	-0.3461937487722731	1.6926497304257273	-0.4812354270353823	-0.3717341252261553	1.5584637166690738	-0.3917462473681093	-0.612447530621155	1.4965097305654886	-0.8837148153502998				-0.3626761105432263	1.5448171770326136	-0.37279087451397325	-0.23204658491742605	1.8563779456499314	-0.6192217957936522	-0.22060919399540466	1.6921547215628792	-0.6373360814877745	-0.18560981030391116	1.5681754742326788	-0.5953368074422736	-0.19954875289187682	1.5283335457960685	-0.6437130920641623	-0.1824729860940176	1.5349482183883212	-0.657844678740673	-0.17926640488447543	1.5591291144557373	-0.561795800706046	-0.2954659853616878	2.0256700673073005	-0.5475060635072767	-0.3420526621492017	2.098240974883002	-0.5673189301016333	-0.30303597330350485	2.0225110125068584	-0.48784530893460915	-0.2673148942864304	1.9302420024647686	-0.44474900777461945	-0.25506340220497975	1.8578678408233469	-0.3930242184521645	-0.2906823093650853	2.0317209371407445	-0.6113177017886873	-0.34936632837353165	1.9613827900168102	-0.6424421906526586	-0.445017544022615	1.9275470219452608	-0.68925788541862
38	1.2666666666666666	-0.2613814648179352	1.8473696140250577	-0.5486484299135395	-0.2769260903147062	1.8454846216897904	-0.49249672529187133	-0.3528770841619108	1.6911924953467077	-0.4783899076784196	-0.3717341252261553	1.5584637166690738	-0.3917462473681093	-0.612447530621155	1.4965097305654886	-0.8837148153502998				-0.3626761105432263	1.5448171770326136	-0.37279087451397325	-0.24045338532524205	1.8504028862494712	-0.6092870349811077	-0.2293450536460039	1.6840702223985133	-0.6360431229384377	-0.1808581292710141	1.5656937673036246	-0.5783843007807559	-0.3192007018797509	1.482448601337646	-1.0955418282142424	-0.3056324395291012	1.4873500138145104	-1.1196428519059085	-0.1783066069252351	1.5542810660934983	-0.5581145065795384	-0.3136344924282663	2.0135765132758383	-0.5490189296175303	-0.3679459900665251	2.080949219370461	-0.5729924727852787	-0.3188813301451127	2.01056234508768	-0.47540762537455883	-0.27513702304440396	1.9178071815062334	-0.4359847602417367	-0.2518704753285088	1.8552180611900086	-0.3811490000191489	-0.30450420893334357	2.0194863432853314	-0.6242410926823087	-0.376838347557537	1.9515586893283081	-0.6440251194714882	-0.4783042661193371	1.900524981094501	-0.6744314439091579
39	1.3	-0.2606236496083396	1.8382999809169311	-0.5473934279539128	-0.27623413692149684	1.836046193272615	-0.4909134671626788	-0.3527829709911349	1.6886522595581743	-0.4812537512547973	-0.3717341252261553	1.5584637166690738	-0.3917462473681093	-0.612447530621155	1.4965097305654886	-0.8837148153502998				-0.3626761105432263	1.5448171770326136	-0.37279087451397325	-0.24198439671315145	1.8400570508595104	-0.6058614358270527	-0.23735612104173923	1.6826551473844964	-0.6363446696253272	-0.18198101341932335	1.5668999358207036	-0.5814781828659596	-0.31635989836164374	1.4826486589524406	-1.0853785548214634	-0.3037308736187442	1.4884079957098653	-1.113432175844002	-0.17658745146820629	1.5599514685431581	-0.5598965596508387	-0.3185967021294469	2.0040085119584807	-0.5530246332084103	-0.38195948613024894	2.072194926460265	-0.5862827628716875	-0.322006168113	1.9980525489225365	-0.47291643451617066	-0.2829591518023775	1.9053723605476982	-0.427220512708854	-0.2788905770566339	1.8221119560318262	-0.35580858354004025	-0.3119820618611988	2.0129209533402386	-0.6377099196928155	-0.37615848919180245	1.9490582098142364	-0.6761124731356095	-0.47905167011121635	1.8934377301318146	-0.6856817198446299
